<svg width="207" height="34" viewBox="0 0 207 34" fill="none" xmlns="http://www.w3.org/2000/svg">
<path fill-rule="evenodd" clip-rule="evenodd" d="M16.6481 30.4522C9.40945 30.4522 3.2308 23.8867 3.2308 16.7255C3.2308 9.59072 9.28013 2.89479 16.5961 2.89479C21.4053 2.89479 24.8682 5.22146 27.6867 8.86674H31.2281C30.1681 6.95346 29.0308 5.19603 27.2988 3.82545C24.3255 1.42142 20.4735 0 16.6481 0C7.47074 0 0 7.57464 0 16.7C0 25.8508 7.57464 33.3481 16.7 33.3481C20.4227 33.3481 24.068 31.9786 26.9893 29.6774C28.8252 28.204 30.1173 26.2907 31.3586 24.3255H27.8172C25.0241 27.9708 21.4573 30.4522 16.6481 30.4522ZM53.3574 13.0028C51.1346 10.1334 48.1094 8.32404 44.3614 8.32404C37.64 8.32404 32.108 13.7798 32.108 20.5012C32.108 27.2214 37.6665 32.728 44.3614 32.728C48.2653 32.728 50.9788 31.0988 53.3574 28.1001V32.1842H56.2787V8.89216H53.3574V13.0028ZM44.2066 30.0388C39.0614 30.0388 35.0027 25.5668 35.0027 20.5266C35.0027 15.5107 39.036 11.0132 44.2066 11.0132C49.3507 11.0132 53.3574 15.5118 53.3574 20.5266C53.3574 25.5668 49.3242 30.0388 44.2066 30.0388ZM59.8201 32.1842H62.9492V0.670921H59.8201V32.1842ZM74.7627 28.487L66.8521 8.89216H63.7495L73.2374 32.1842H76.3908L85.8533 8.89216H82.8027L74.7627 28.487ZM87.1454 32.1842H90.2734V8.89216H87.1454V32.1842ZM87.1454 5.89348H90.2734V0.670921H87.1454V5.89348ZM103.743 8.32293C100.795 8.32293 98.7014 9.87478 96.7627 11.9428V8.89216H93.8668V32.1842H96.9428V17.991C96.9174 14.2429 100.019 11.0121 103.794 11.0121C108.523 11.0121 110.902 15.1228 110.902 19.3627V32.1853H113.797V19.3627C113.798 13.3134 110.257 8.32293 103.743 8.32293ZM142.829 0.670921L128.611 18.7415V0.670921H125.535V32.1842H128.611V23.5242L132.644 18.5094L142.907 32.1842H146.812L134.608 16.0269L146.812 0.670921H142.829ZM147.948 32.1842H151V0.670921H147.948V32.1842ZM176.256 14.7602C174.136 10.8043 169.896 8.32293 165.423 8.32293C158.755 8.32293 153.118 13.8815 153.118 20.5509C153.118 27.2711 158.806 32.7269 165.477 32.7269C168.655 32.7269 171.785 31.4602 174.084 29.2629C175.481 27.9443 176.308 26.2896 177.056 24.5576H173.775C172.119 27.7895 169.198 30.0377 165.422 30.0377C163.123 30.0377 160.874 29.107 159.168 27.5298C157.408 25.9282 156.634 23.9619 156.297 21.6363H177.781C177.783 19.2068 177.445 16.8802 176.256 14.7602ZM156.402 18.9482C157.334 14.5801 160.771 11.0121 165.477 11.0121C169.432 11.0121 173.672 13.4427 174.603 18.9482H156.402ZM180.057 32.1842H183.132V8.89216H180.057V32.1842ZM180.057 5.99738H183.132V0.670921H180.057V5.99738ZM196.654 8.32293C193.654 8.32293 191.56 9.87478 189.595 11.9428V8.89216H186.648V32.1842H189.751V17.991C189.725 14.2175 192.905 11.0121 196.704 11.0121C201.411 11.0121 203.893 15.1228 203.893 19.3627V32.1853H206.788V19.3627C206.788 13.3134 203.193 8.32293 196.654 8.32293Z" fill="white"/>
</svg>
