<svg width="156" height="36" viewBox="0 0 156 36" fill="none" xmlns="http://www.w3.org/2000/svg">
<g clip-path="url(#clip0_16603_247)">
<path d="M141.312 11.2934L141.021 11.3855C139.887 9.04204 138.268 7.17651 136.162 5.78893C134.089 4.40133 131.482 3.70752 128.34 3.70752C126.591 3.70752 124.923 4.06211 123.336 4.77129C121.749 5.44972 120.356 6.42104 119.158 7.68525C117.992 8.91865 117.053 10.4142 116.34 12.1718C115.627 13.9294 115.271 15.872 115.271 17.9997C115.271 20.1273 115.627 22.0699 116.34 23.8275C117.053 25.5851 117.992 27.096 119.158 28.3603C120.356 29.5937 121.749 30.5496 123.336 31.228C124.923 31.9063 126.591 32.2455 128.34 32.2455C131.45 32.2455 133.976 31.783 135.919 30.8579C137.895 29.9021 139.563 28.4528 140.924 26.5102L141.215 26.6024L141.118 29.5626C140.373 30.3026 139.515 30.9656 138.543 31.5514C137.572 32.1065 136.519 32.5844 135.385 32.9853C134.284 33.3553 133.134 33.6328 131.936 33.8178C130.738 34.0339 129.539 34.1419 128.341 34.1419C125.847 34.1419 123.466 33.7564 121.199 32.9855C118.932 32.2146 116.94 31.1354 115.223 29.7478C113.506 28.3294 112.146 26.6335 111.142 24.66C110.138 22.6558 109.636 20.4356 109.636 17.9996C109.636 15.5636 110.138 13.3589 111.142 11.3855C112.146 9.38116 113.506 7.6698 115.223 6.25142C116.94 4.83298 118.932 3.75374 121.199 3.01369C123.466 2.24279 125.847 1.85734 128.341 1.85734C129.539 1.85734 130.738 1.94984 131.936 2.13486C133.134 2.31987 134.284 2.61281 135.385 3.01369C136.519 3.38372 137.572 3.86167 138.543 4.44757C139.515 5.0026 140.373 5.65013 141.118 6.39017L141.312 11.2934ZM34.252 20.1277C33.8959 20.2817 33.5558 20.4822 33.2317 20.7293C32.9076 20.9758 32.7456 21.315 32.7456 21.7469V27.4359C31.1909 29.5636 29.199 31.2133 26.7698 32.385C24.3406 33.5568 21.6523 34.1427 18.7048 34.1427C16.2108 34.1427 13.8302 33.7572 11.563 32.9863C9.29573 32.2154 7.30378 31.1362 5.58713 29.7486C3.87051 28.3302 2.51014 26.6343 1.50605 24.6608C0.502017 22.6566 0 20.4364 0 18.0004C0 15.5644 0.502017 13.3597 1.50605 11.3863C2.51014 9.38192 3.87051 7.67056 5.58713 6.25218C7.30378 4.83374 9.29573 3.75451 11.563 3.01449C13.8302 2.24356 16.2108 1.8581 18.7048 1.8581C19.9032 1.8581 21.1016 1.9506 22.3001 2.13561C23.4984 2.32062 24.6483 2.61357 25.7495 3.01445C26.8831 3.38447 27.9358 3.86243 28.9075 4.44832C29.8791 5.00335 30.7375 5.65089 31.4825 6.39093L31.6771 11.2937L31.3856 11.3859C30.252 9.04238 28.6325 7.17683 26.5272 5.78925C24.4543 4.40165 21.8469 3.70784 18.7052 3.70784C16.9561 3.70784 15.2881 4.06245 13.7011 4.77165C12.114 5.45005 10.7212 6.42136 9.52279 7.68557C8.35675 8.919 7.41748 10.4145 6.70498 12.1721C5.99236 13.9297 5.63605 15.8724 5.63605 18C5.63605 20.0968 5.97615 22.024 6.65635 23.7816C7.36894 25.5392 8.30824 27.0501 9.47425 28.3144C10.6726 29.5478 12.0654 30.5191 13.6524 31.2283C15.2395 31.9067 16.9238 32.2459 18.7052 32.2459C22.0737 32.2459 24.9563 31.6292 27.3531 30.3958V21.7465C27.3531 21.315 27.1751 20.9758 26.819 20.7289C26.4949 20.4824 26.171 20.2819 25.8473 20.1273L25.8917 19.8963C26.0534 19.9245 26.345 19.9553 26.7662 19.9885C27.1875 20.0167 27.6248 20.0475 28.078 20.0807H32.2565C32.6451 20.0525 33.0176 20.0218 33.3739 19.9885C33.73 19.9603 34.0052 19.9296 34.1996 19.8963L34.252 20.1277ZM69.442 2.82908C69.1179 2.98307 68.794 3.18359 68.4703 3.43065C68.1462 3.67714 67.9682 4.13967 67.9362 4.81822C67.9066 5.55827 67.8743 6.49875 67.8393 7.63967C67.8393 8.74976 67.8245 10.014 67.7949 11.4323C67.7949 12.8508 67.7801 14.3926 67.7505 16.0577V21.2381C67.7208 23.2423 67.4616 24.9537 66.9728 26.3721C66.487 27.7905 65.8392 28.9776 65.0295 29.9335C64.2522 30.8895 63.3777 31.6449 62.406 32.2C61.4666 32.755 60.5273 33.1713 59.5881 33.4488C58.6811 33.7573 57.8228 33.9423 57.0132 34.0038C56.2034 34.0963 55.5718 34.1426 55.1184 34.1426C53.2722 34.1426 51.4907 33.9113 49.7741 33.4488C48.0574 33.0173 46.5513 32.3081 45.2558 31.3211C43.9602 30.3344 42.9238 29.0547 42.1465 27.4822C41.3691 25.9096 40.9804 23.9978 40.9804 21.7468V16.5203V11.7099C40.9804 10.2298 40.9656 8.90384 40.936 7.73214C40.936 6.52954 40.9212 5.55823 40.8915 4.81818C40.8619 4.13979 40.6839 3.67726 40.3574 3.43061C40.0333 3.18411 39.7094 2.98359 39.3857 2.82904L39.4302 2.59806C39.5919 2.62626 39.8512 2.65699 40.2078 2.69025C40.5965 2.71845 40.9852 2.74918 41.3739 2.78243C41.7951 2.78243 42.2 2.79653 42.5885 2.82473H44.3375C44.7262 2.79653 45.131 2.78243 45.5521 2.78243C45.9733 2.75423 46.362 2.7235 46.7181 2.69025C47.1067 2.66204 47.3819 2.63132 47.5437 2.59806L47.5881 2.82904C47.232 2.98303 46.892 3.18355 46.5679 3.43061C46.2764 3.6771 46.1143 4.13963 46.0817 4.81818C46.0521 5.55823 46.0198 6.52954 45.9849 7.73214V21.7468C45.9849 25.1078 46.8108 27.59 48.4626 29.1935C50.1145 30.7969 52.5599 31.5986 55.7989 31.5986C56.7381 31.5986 57.807 31.4906 59.0054 31.2746C60.2039 31.0281 61.3213 30.5347 62.3577 29.7945C63.4266 29.0544 64.3173 28.0061 65.0299 26.6493C65.7748 25.2925 66.1473 23.4887 66.1473 21.2377C66.1473 18.8017 66.1325 16.7204 66.1029 14.9936C66.1029 13.236 66.088 11.7405 66.0584 10.5071C66.0584 9.24282 66.0436 8.16358 66.014 7.26933C65.9844 6.37514 65.9521 5.55801 65.9171 4.81795C65.8874 4.13955 65.7094 3.67702 65.3829 3.43037C65.0588 3.18387 64.735 2.98334 64.4113 2.82876L64.4557 2.59782C64.8118 2.65928 65.2167 2.72104 65.6703 2.78311C66.1235 2.81131 66.5446 2.82541 66.9335 2.82541C67.2896 2.82541 67.6945 2.81131 68.1481 2.78311C68.6339 2.72165 69.055 2.65989 69.4113 2.59782L69.442 2.82908ZM104.696 11.2934L104.405 11.3855C103.271 9.04204 101.652 7.17651 99.5462 5.78893C97.4733 4.40133 94.8659 3.70752 91.7242 3.70752C89.9752 3.70752 88.3071 4.06211 86.72 4.77129C85.1329 5.44972 83.7402 6.42104 82.5418 7.68525C81.3758 8.91865 80.4365 10.4142 79.7239 12.1718C79.0114 13.9294 78.6551 15.8721 78.6551 17.9997C78.6551 20.1273 79.0114 22.0699 79.7239 23.8275C80.4366 25.5851 81.3759 27.096 82.5418 28.3603C83.7402 29.5937 85.1329 30.5496 86.72 31.228C88.3071 31.9063 89.9752 32.2455 91.7243 32.2455C94.8336 32.2455 97.36 31.783 99.3034 30.8579C101.279 29.9021 102.947 28.4528 104.307 26.5102L104.599 26.6024L104.502 29.5626C103.757 30.3026 102.899 30.9656 101.927 31.5514C100.955 32.1064 99.9027 32.5844 98.7691 32.9853C97.6679 33.3553 96.5181 33.6328 95.3196 33.8178C94.1212 34.0338 92.9228 34.1419 91.7245 34.1419C89.2304 34.1419 86.8498 33.7564 84.5826 32.9855C82.3153 32.2146 80.3234 31.1354 78.6068 29.7478C76.8901 28.3294 75.5297 26.6335 74.5257 24.66C73.5216 22.6557 73.0196 20.4356 73.0196 17.9996C73.0196 15.5636 73.5216 13.3589 74.5257 11.3855C75.5297 9.38112 76.8901 7.66976 78.6068 6.25138C80.3234 4.83294 82.3153 3.7537 84.5826 3.01365C86.8499 2.24275 89.2305 1.8573 91.7245 1.8573C92.9228 1.8573 94.1212 1.94981 95.3197 2.13482C96.5181 2.31983 97.6679 2.61277 98.7691 3.01365C99.9027 3.38368 100.955 3.86163 101.927 4.44753C102.899 5.00256 103.757 5.65009 104.502 6.39013L104.696 11.2934ZM155.956 33.356C155.794 33.3278 155.519 33.297 155.13 33.2638C154.774 33.2638 154.385 33.2497 153.964 33.2215C153.543 33.2215 153.138 33.2074 152.749 33.1792H149.835C149.446 33.2074 149.057 33.2381 148.669 33.2714C148.312 33.2996 148.037 33.3303 147.843 33.3635L147.798 33.1782C148.122 33.0242 148.446 32.8237 148.77 32.5766C149.094 32.3302 149.272 31.8676 149.304 31.1891C149.334 30.449 149.349 29.6782 149.349 28.8764C149.378 28.0747 149.393 27.165 149.393 26.1475V22.6785V18.007V13.3355V9.82025C149.393 8.80269 149.378 7.90846 149.349 7.13756C149.349 6.33585 149.334 5.56497 149.304 4.82493C149.275 4.14653 149.097 3.68401 148.77 3.43735C148.446 3.15984 148.122 2.94407 147.798 2.79005L147.843 2.6048C148.037 2.66626 148.312 2.71251 148.669 2.74356C149.057 2.74356 149.446 2.75766 149.835 2.78586C150.256 2.81406 150.661 2.82817 151.049 2.82817H152.749C153.138 2.79996 153.543 2.78586 153.964 2.78586C154.385 2.75766 154.774 2.72693 155.13 2.69368C155.519 2.66548 155.794 2.63475 155.956 2.60149L156 2.78682C155.644 2.94081 155.304 3.15656 154.98 3.43408C154.688 3.68057 154.526 4.1431 154.494 4.82166C154.464 5.5617 154.432 6.33257 154.397 7.13429V28.8732C154.426 29.6749 154.459 30.4458 154.494 31.1858C154.523 31.8642 154.685 32.3267 154.98 32.5734C155.304 32.8199 155.644 33.0204 156 33.1749L155.956 33.356Z" fill="white"/>
</g>
<defs>
<clipPath id="clip0_16603_247">
<rect width="156" height="36" fill="white"/>
</clipPath>
</defs>
</svg>
