<svg width="159" height="24" viewBox="0 0 159 24" fill="none" xmlns="http://www.w3.org/2000/svg">
<path d="M11.3866 23.8933C3.65329 23.8667 -4.55678e-05 21.4667 0.186621 15.6533H6.82662C6.90662 17.1733 8.18662 18.1067 11.3866 18.1333C14.2133 18.16 15.52 17.36 15.52 16.32C15.52 15.6 15.12 14.8533 12.9333 14.5333L10.0533 14.08C5.81329 13.3867 0.719954 12.88 0.719954 7.14667C0.719954 2.72 4.31995 0 11.44 0C17.8666 0 22.3466 1.78667 22.2133 8.18667H15.6266C15.36 6.69333 14.1066 5.76 11.28 5.76C8.82662 5.76 7.81329 6.50667 7.81329 7.52C7.81329 8.16 8.21329 8.93333 9.91995 9.2L12.2933 9.6C16.7466 10.3467 22.8533 10.48 22.8533 16.6133C22.8533 21.4933 19.0666 23.92 11.3866 23.8933ZM40.3312 0.746668H47.7179V23.1467H40.3312V15.04H31.6379V23.1467H24.2512V0.746668H31.6379V8.85333H40.3312V0.746668ZM61.8883 23.8933C54.1816 23.8933 49.195 19.12 49.195 11.9467C49.195 4.77333 54.1816 0 61.8883 0C69.595 0 74.5816 4.77333 74.5816 11.9467C74.5816 19.12 69.595 23.8933 61.8883 23.8933ZM61.8883 17.52C64.8216 17.52 67.2483 15.4933 67.2483 11.9467C67.2483 8.4 64.8216 6.37333 61.8883 6.37333C58.955 6.37333 56.5283 8.4 56.5283 11.9467C56.5283 15.4933 58.955 17.52 61.8883 17.52ZM76.0637 23.1467V0.746668H88.7837C94.8904 0.746668 98.517 3.46667 98.517 9.49333C98.517 15.52 94.8904 18.24 88.8104 18.24H83.4504V23.1467H76.0637ZM83.4504 12.1067H88.1437C89.9304 12.1067 91.077 11.2267 91.077 9.49333C91.077 7.76 89.9304 6.88 88.1704 6.88H83.4504V12.1067ZM102.212 23.5733C100.212 23.5733 98.5325 21.92 98.5325 19.9467C98.5325 17.9733 100.212 16.32 102.212 16.32C104.212 16.32 105.892 17.9733 105.892 19.9467C105.892 21.92 104.212 23.5733 102.212 23.5733ZM119.938 23.8933C112.391 23.8933 107.351 19.12 107.351 11.9467C107.351 4.77333 112.391 0 119.938 0C125.405 0 131.005 2.4 131.751 9.97333H124.711C124.098 7.52 122.365 6.37333 119.938 6.37333C117.005 6.37333 114.685 8.56 114.685 11.9467C114.685 15.3333 117.005 17.52 119.938 17.52C122.365 17.52 124.098 16.3733 124.711 13.8667H131.751C131.005 21.4933 125.458 23.8933 119.938 23.8933ZM145.795 23.8933C138.088 23.8933 133.101 19.12 133.101 11.9467C133.101 4.77333 138.088 0 145.795 0C153.501 0 158.488 4.77333 158.488 11.9467C158.488 19.12 153.501 23.8933 145.795 23.8933ZM145.795 17.52C148.728 17.52 151.155 15.4933 151.155 11.9467C151.155 8.4 148.728 6.37333 145.795 6.37333C142.861 6.37333 140.435 8.4 140.435 11.9467C140.435 15.4933 142.861 17.52 145.795 17.52Z" fill="black"/>
</svg>
