<svg width="91" height="38" viewBox="0 0 91 38" fill="none" xmlns="http://www.w3.org/2000/svg">
<g clip-path="url(#clip0_16603_245)">
<path d="M86.3324 36.8682L72.8501 0.0322557L72.841 0.00787354H72.5749L69.7985 7.57753L64.7441 21.3583L64.7323 21.3474C62.9806 19.8135 60.5091 18.8546 57.3965 18.4976L56.4472 18.4003L57.389 18.2805C62.5219 17.3652 65.9723 14.1482 65.9723 10.2723C65.9723 4.95736 60.9348 1.24757 53.7189 1.24757H38.7052V1.51668H43.0678V28.98L32.4727 0.0321654L32.4632 0.00787354H32.1971L29.4207 7.57753L18.7123 36.7734L18.6464 36.781C18.4634 36.8034 18.2824 36.8212 18.1034 36.8346C17.834 36.8556 17.5662 36.8681 17.2976 36.8681H6.47765L27.0448 1.51659L27.1977 1.25091H2.04322V12.1867H2.31013C2.35745 6.86007 5.48348 1.51659 12.3902 1.51659H20.7226L0 37.133H27.9173V26.6557H27.6504C27.614 31.2985 24.9619 35.7082 19.1947 36.7039L19.0114 36.7349L23.4036 24.7547H35.7075L40.141 36.8682H35.7675V37.1331H52.9333V36.8682H48.5411V18.5956H53.6091C58.7665 18.5956 61.7245 20.8821 61.7245 24.8669V28.1082C61.7245 28.4653 61.749 28.9875 61.776 29.4242V29.4401L59.052 36.8665H55.4934V37.1314H62.8596V36.8665H59.3393L61.8199 30.104C61.825 30.1694 61.8276 30.2088 61.8276 30.2088L61.896 30.8181L61.9619 31.2212C62.3758 33.7149 63.3369 35.548 64.8177 36.6695L65.0305 36.8229C66.1555 37.5991 67.5535 37.9922 69.1879 37.9922C71.3527 37.9922 72.7962 37.4566 73.988 36.196L73.8318 36.0501C72.7337 37.0559 71.8122 37.4633 70.6576 37.4633C68.6903 37.4633 67.6608 35.0954 67.6608 32.7602V28.2188C67.6712 27.092 67.4934 25.9712 67.1345 24.9021L67.0856 24.7613V24.7563H76.0851L80.5186 36.8699H76.1452V37.1347H91V36.8699L86.3324 36.8682ZM23.5015 24.4898L29.5627 7.96485L35.6104 24.4898H23.5015ZM48.5438 18.3299V1.51659H52.4122C57.5798 1.51659 60.308 4.56507 60.308 10.3294C60.308 16.4599 58.742 18.3299 53.6091 18.3299H48.5438ZM66.9807 24.4898L66.9545 24.4244C66.5546 23.4578 65.9723 22.5759 65.239 21.826L64.9856 21.5745L64.9586 21.5494L69.937 7.96485L75.9846 24.4898H66.9807Z" fill="white"/>
</g>
<defs>
<clipPath id="clip0_16603_245">
<rect width="91" height="38" fill="white"/>
</clipPath>
</defs>
</svg>
